<svg width="723" height="1052" viewBox="0 0 723 1052" fill="none" xmlns="http://www.w3.org/2000/svg">
<path d="M112.156 495.947C197.841 403.148 257.241 338.816 313.463 111.302C318.154 92.3204 342.21 84.7954 357.378 97.1332C412.874 142.273 478.809 188.924 570.609 373.872C681.635 597.556 630.689 803.978 511.733 905.941C392.776 1007.9 169.078 970.778 79.1732 852.47C-10.7312 734.163 19.7462 596.033 111.196 496.987L112.156 495.947Z" fill="url(#paint0_linear_1198_20)"/>
<path d="M349.233 41.0691C733.846 328.628 490.55 441.725 349.9 493.089" stroke="#622D86" stroke-width="82" stroke-linecap="round"/>
<path d="M592.995 380.485C681.497 521.986 703.497 663.481 321.296 703.155" stroke="#622D86" stroke-width="82" stroke-linecap="round"/>
<path d="M530.999 658.998C728.995 576.497 671 1007.49 330.998 1007.49" stroke="#622D86" stroke-width="82" stroke-linecap="round"/>
<defs>
<linearGradient id="paint0_linear_1198_20" x1="343.195" y1="101.984" x2="210.694" y2="928.484" gradientUnits="userSpaceOnUse">
<stop stop-color="#632D87"/>
<stop offset="0.411234" stop-color="#E88D8B"/>
<stop offset="0.95" stop-color="#A7C84C"/>
</linearGradient>
</defs>
</svg>
