<svg width="791" height="1129" viewBox="0 0 791 1129" fill="none" xmlns="http://www.w3.org/2000/svg">
<path d="M112.156 495.963C197.841 403.164 257.241 338.832 313.463 111.317C318.154 92.336 342.21 84.8111 357.378 97.1488C412.874 142.289 478.809 188.939 570.609 373.888C681.635 597.571 630.689 803.994 511.733 905.957C392.776 1007.92 169.078 970.793 79.1732 852.486C-10.7312 734.179 19.7462 596.048 111.196 497.003L112.156 495.963Z" fill="url(#paint0_linear_1198_20)"/>
<path d="M349.897 40.997C739.218 328.033 492.506 441.51 349.903 493.091" stroke="white" stroke-width="82" stroke-linecap="round"/>
<path d="M592.995 380.5C681.497 522.002 703.497 663.497 321.296 703.171" stroke="white" stroke-width="82" stroke-linecap="round"/>
<path d="M571.168 641.237C642.006 641.234 752.006 663.493 496.004 1088" stroke="white" stroke-width="82" stroke-linecap="round"/>
<defs>
<linearGradient id="paint0_linear_1198_20" x1="343.195" y1="102" x2="210.694" y2="928.5" gradientUnits="userSpaceOnUse">
<stop stop-color="#632D87"/>
<stop offset="0.411234" stop-color="#E88D8B"/>
<stop offset="0.95" stop-color="#A7C84C"/>
</linearGradient>
</defs>
</svg>
